<?xml version="1.0" encoding="UTF-8" standalone="no"?>
<svg
   version="1.1"
   id="Layer_1"
   x="0px"
   y="0px"
   viewBox="0 0 200 200"
   xml:space="preserve"
   sodipodi:docname="fw_thumb.svg"
   inkscape:version="1.2.2 (1:1.2.2+202305151914+b0a8486541)"
   width="200"
   height="200"
   xmlns:inkscape="http://www.inkscape.org/namespaces/inkscape"
   xmlns:sodipodi="http://sodipodi.sourceforge.net/DTD/sodipodi-0.dtd"
   xmlns="http://www.w3.org/2000/svg"
   xmlns:svg="http://www.w3.org/2000/svg"
   xmlns:rdf="http://www.w3.org/1999/02/22-rdf-syntax-ns#"
   xmlns:cc="http://creativecommons.org/ns#"
   xmlns:dc="http://purl.org/dc/elements/1.1/"><metadata
   id="metadata45"><rdf:RDF><cc:Work
       rdf:about=""><dc:format>image/svg+xml</dc:format><dc:type
         rdf:resource="http://purl.org/dc/dcmitype/StillImage" /></cc:Work></rdf:RDF></metadata><defs
   id="defs43" /><sodipodi:namedview
   pagecolor="#ffffff"
   bordercolor="#666666"
   borderopacity="1"
   objecttolerance="10"
   gridtolerance="10"
   guidetolerance="10"
   inkscape:pageopacity="0"
   inkscape:pageshadow="2"
   inkscape:window-width="1920"
   inkscape:window-height="1009"
   id="namedview41"
   showgrid="false"
   inkscape:zoom="4.5260325"
   inkscape:cx="100.08766"
   inkscape:cy="111.46628"
   inkscape:window-x="0"
   inkscape:window-y="0"
   inkscape:window-maximized="1"
   inkscape:current-layer="Layer_1"
   inkscape:showpageshadow="2"
   inkscape:pagecheckerboard="0"
   inkscape:deskcolor="#d1d1d1" />
<style
   type="text/css"
   id="style2">
	.st0{fill:none;stroke:#000000;stroke-width:2.25;stroke-miterlimit:10;}
	.st1{fill:#656668;stroke:#000000;stroke-width:2.25;stroke-miterlimit:10;}
	.st2{fill:#FFFFFF;stroke:#000000;stroke-width:2.25;stroke-miterlimit:10;}
	.st3{stroke:#000000;stroke-width:2.25;stroke-miterlimit:10;}
	.st4{fill:#010101;stroke:#000000;stroke-width:0.56;stroke-miterlimit:10;}
</style>
<rect
   style="fill:#ffffff;stroke-width:4.0207;stroke-linecap:round;stroke-linejoin:round"
   id="rect47"
   width="167.423"
   height="144.24277"
   x="16.374102"
   y="39.338768"
   ry="12.854736" /><path
   class="st0"
   d="M 138.3,8.5995506"
   id="path4" />
<path
   class="st1"
   d="m 57.799999,76.999551 -7.6,-36.7 H 151.4 l -7.6,36.7 h 19.7 c 10.3,-0.1 18.9,8.1 19,18.5 v 45.699999 c -0.1,10.3 -8.7,18.6 -19,18.5 H 36.499999 c -10.3,0.1 -18.9,-8.1 -19,-18.5 V 95.499551 c 0.1,-10.3 8.7,-18.6 19,-18.5 h 21.3 l -7.7,-36.7 v 0"
   id="path6" />
<path
   class="st0"
   d="M 65.899999,103.29955"
   id="path8" />
<circle
   class="st2"
   cx="61.799999"
   cy="118.39955"
   r="16.9"
   id="circle10" />
<path
   class="st0"
   d="M 139.7,103.29955"
   id="path12" />
<circle
   class="st2"
   cx="135.60001"
   cy="118.39955"
   r="16.9"
   id="circle14" />
<circle
   class="st3"
   cx="65.599998"
   cy="125.79955"
   r="7.3000002"
   id="circle16" />
<circle
   class="st3"
   cx="139.5"
   cy="125.79955"
   r="7.4000001"
   id="circle18" />
<path
   class="st4"
   d="m 28.999999,167.69955 h 2.2 v 14.9 h -2.2 z m 1,0 h 8.5 v 2.1 h -8.5 z m 0,6.6 h 7.3 v 2.1 h -7.4 v -2.1 z"
   id="path20" />
<path
   class="st4"
   d="m 42.299999,167.69955 h 2.2 v 14.9 h -2.2 z m 1,0 h 8.7 v 2.1 h -8.7 z m 0,6.4 h 7.6 v 2.1 h -7.6 z m 0,6.4 h 8.7 v 2.1 h -8.7 z"
   id="path22" />
<path
   class="st4"
   d="m 56.199999,167.69955 h 2.2 v 14.9 h -2.2 z m 1.5,12.8 h 3.4 c 0.9,0.1 1.8,-0.2 2.5,-0.8 0.6,-0.6 1,-1.5 0.9,-2.3 v -4.4 c 0.1,-0.9 -0.3,-1.7 -0.9,-2.4 -0.7,-0.6 -1.6,-0.9 -2.5,-0.8 h -3.4 v -2.1 h 3.4 c 1.1,0 2.1,0.2 3.1,0.6 0.8,0.4 1.5,1 2,1.8 0.5,0.9 0.7,1.9 0.7,2.9 v 4.2 c 0,1 -0.2,2 -0.7,2.9 -0.5,0.8 -1.2,1.4 -2,1.8 -1,0.4 -2,0.7 -3.1,0.6 h -3.4 z"
   id="path24" />
<path
   class="st4"
   d="m 77.799999,167.69955 h 1.5 l 3.1,11.5 2.6,-11.5 h 2.3 l -3.6,14.9 h -2.2 l -2.8,-10.4 -2.9,10.4 h -2.2 l -3.6,-14.9 h 2.3 l 2.6,11.5 z"
   id="path26" />
<path
   class="st4"
   d="m 93.799999,167.69955 h 1.8 l 5.600001,14.9 h -2.400001 l -4.1,-11.8 -4.1,11.8 h -2.4 z m -3,9.6 h 7.9 v 2.1 h -7.9 z"
   id="path28" />
<path
   class="st4"
   d="m 102.2,167.69955 h 10.7 v 2.1 h -10.7 z m 4.2,1.2 h 2.2 v 13.7 h -2.2 z"
   id="path30" />
<path
   class="st4"
   d="m 117.9,181.99955 c -0.8,-0.5 -1.4,-1.1 -1.8,-1.9 -0.5,-0.9 -0.7,-1.9 -0.6,-2.9 v -4.1 c 0,-1 0.2,-2 0.6,-2.9 0.4,-0.8 1,-1.5 1.8,-1.9 0.8,-0.5 1.8,-0.7 2.8,-0.7 0.8,0 1.7,0.2 2.4,0.6 0.7,0.4 1.4,0.9 1.8,1.6 0.5,0.7 0.8,1.5 1,2.4 h -2.3 c -0.1,-0.5 -0.3,-0.9 -0.6,-1.3 -0.3,-0.4 -0.6,-0.6 -1,-0.8 -0.4,-0.2 -0.8,-0.3 -1.3,-0.3 -0.6,0 -1.1,0.1 -1.6,0.4 -0.5,0.3 -0.8,0.7 -1,1.2 -0.3,0.6 -0.4,1.2 -0.4,1.8 v 4.1 c 0,0.6 0.1,1.2 0.4,1.8 0.2,0.5 0.6,0.9 1,1.2 0.5,0.3 1,0.4 1.6,0.4 0.4,0 0.9,-0.1 1.3,-0.3 0.4,-0.2 0.8,-0.5 1,-0.8 0.3,-0.4 0.5,-0.8 0.6,-1.3 h 2.3 c -0.2,0.9 -0.5,1.7 -1,2.4 -0.5,0.7 -1.1,1.2 -1.8,1.6 -0.7,0.4 -1.6,0.6 -2.4,0.5 -1,-0.1 -1.9,-0.3 -2.8,-0.8 z"
   id="path32" />
<path
   class="st4"
   d="m 129.9,167.69955 h 2.2 v 14.9 h -2.2 z m 1.3,6.5 h 8.4 v 2.1 h -8.4 z m 7.2,-6.5 h 2.2 v 14.9 h -2.2 z"
   id="path34" />
<path
   class="st4"
   d="m 145.5,167.69955 h 2.2 v 14.9 h -2.2 z m 1,0 h 8.7 v 2.1 h -8.7 z m 0,6.4 h 7.6 v 2.1 h -7.6 z m 0,6.4 h 8.7 v 2.1 h -8.7 z"
   id="path36" />
<path
   class="st4"
   d="m 159.5,167.59955 h 2.2 v 14.9 h -2.2 z m 1,6.6 h 5.1 c 0.4,0 0.7,-0.1 1,-0.3 0.3,-0.2 0.5,-0.5 0.7,-0.8 0.2,-0.4 0.3,-0.8 0.2,-1.2 0,-0.4 -0.1,-0.8 -0.2,-1.2 -0.1,-0.3 -0.4,-0.6 -0.7,-0.8 -0.3,-0.2 -0.6,-0.3 -1,-0.3 h -5.1 v -2.1 h 5.1 c 0.8,0 1.6,0.2 2.3,0.5 0.6,0.3 1.2,0.9 1.5,1.5 0.4,0.7 0.6,1.5 0.5,2.3 0,0.8 -0.2,1.6 -0.5,2.3 -0.4,0.6 -0.9,1.2 -1.5,1.5 -0.7,0.4 -1.5,0.6 -2.3,0.5 h -5.1 z m 4,1.6 2.2,-0.5 3.9,7.2 H 168 Z"
   id="path38" />
<rect
   style="fill:none;stroke-width:2.69247;stroke-linecap:round;stroke-linejoin:round"
   id="rect540"
   width="200"
   height="200"
   x="0"
   y="0" /></svg>
